<?xml version="1.0" encoding="UTF-8"?>
<!DOCTYPE svg  PUBLIC '-//W3C//DTD SVG 1.1//EN'  'http://www.w3.org/Graphics/SVG/1.1/DTD/svg11.dtd'>
<svg enable-background="new 0 0 31.559 16.37" version="1.1" viewBox="0 0 31.559 16.37" xml:space="preserve" xmlns="http://www.w3.org/2000/svg"><path d="m20.584 12.574c0 1.032 2.441 3.796 5.471 3.796s5.504-2.764 5.504-3.796c0-1.03-2.457-1.866-5.487-1.866-3.031 0-5.488 0.836-5.488 1.866z" fill="#231F20"/><path d="m20.695 12.183c0.317-0.354 0.527-0.488 0.527-0.488l4.649-9.084-0.203-0.01-4.973 9.582z" fill="#231F20"/><path d="m30.729 11.576s0.229 0.081 0.567 0.416l-5.26-9.374-0.19-8e-3 4.883 8.966z" fill="#231F20"/><polygon points="25.897 14.322 26.432 14.322 25.949 2.614 25.822 2.607" fill="#231F20"/><path d="m0 12.57v8e-3c6e-3 1.036 2.443 3.792 5.471 3.792 3.03 0 5.502-2.764 5.502-3.796 0-1.03-2.456-1.866-5.486-1.866-3.028 0-5.481 0.834-5.487 1.862z" fill="#231F20"/><path d="m0.11 12.183c0.317-0.354 0.527-0.488 0.527-0.488l4.65-9.085-0.204-0.01-4.973 9.583z" fill="#231F20"/><path d="m5.261 2.61 4.883 8.966s0.229 0.081 0.568 0.416l-5.261-9.374-0.19-8e-3z" fill="#231F20"/><polygon points="5.237 2.607 5.237 2.632 5.313 14.322 5.847 14.322 5.364 2.614" fill="#231F20"/><path d="m5.083 3.045v2e-3c6.151-2.682 10.484-1.148 10.484-1.148l0.087-1.151c-0.85-0.232-1.721-0.328-2.581-0.328-4.099 0-7.948 2.18-7.948 2.18l-0.042 0.445z" fill="#231F20"/><path d="m15.614 0.806 0.088 1.149s4.332-1.533 10.485 1.148l-0.044-0.446s-3.848-2.181-7.947-2.181c-0.86 1e-3 -1.731 0.096-2.582 0.33z" fill="#231F20"/><path d="m14.059 15.443v5e-3c5e-3 0.244 0.728 0.441 1.617 0.441 0.895 0 1.618-0.198 1.618-0.444s-0.724-0.445-1.618-0.445c-0.89 0-1.613 0.198-1.617 0.443z" fill="#231F20"/><path d="m14.899 15.296v3e-3c0 0.154 0.346 0.279 0.772 0.279 0.425 0 0.771-0.125 0.771-0.279 0-3e-3 -2e-3 -6e-3 -2e-3 -9e-3h3e-3l-0.44-14.18h-0.746l-0.358 14.186z" fill="#231F20"/><path d="m4.494 2.767v0.015c3e-3 0.452 0.37 0.816 0.822 0.816 0.455 0 0.822-0.368 0.822-0.823s-0.367-0.823-0.822-0.823c-0.452-1e-3 -0.819 0.364-0.822 0.815z" fill="#231F20"/><path d="m25.185 2.774c0 0.455 0.369 0.823 0.823 0.823 0.455 0 0.822-0.368 0.822-0.823s-0.367-0.823-0.822-0.823c-0.454 0-0.823 0.368-0.823 0.823z" fill="#231F20"/><path d="m14.227 1.311v0.022c6e-3 0.724 0.595 1.311 1.32 1.311 0.731 0 1.322-0.593 1.322-1.321 0-0.732-0.591-1.323-1.322-1.323-0.726 0-1.315 0.585-1.32 1.311z" fill="#231F20"/><path d="m11.589 4.481c0.91 0.909 2.404 1.35 3.941 1.35 1.46 0 2.769-0.525 3.676-1.356l-1.75-1.932c-0.588 0.204-1.249 0.37-1.926 0.37-0.756 0-1.469-0.144-2.109-0.394l-1.832 1.962z" fill="#231F20"/><path d="m16.347 1.526c0-0.384-0.311-0.694-0.694-0.694-0.385 0-0.695 0.311-0.695 0.694 0 0.225 0.107 0.422 0.271 0.549l0.33 3.681 0.453-3.637c0.2-0.122 0.335-0.341 0.335-0.593z" fill="#fff"/></svg>
