<svg width="512" height="512" xmlns="http://www.w3.org/2000/svg">

 <g>
  <title>background</title>
  <rect fill="none" id="canvas_background" height="402" width="582" y="-1" x="-1"/>
 </g>
 <g>
  <title>Layer 1</title>
  <circle id="svg_2" r="253.44" cy="256" cx="256" fill="#b10000" />
  <path id="svg_3" fill="#FFFFFF" d="m350.019012,144.065994l17.520996,17.522003c6.046997,6.046997 6.046997,15.85199 0,21.899994l-183.933014,183.931015c-6.046997,6.048004 -15.852005,6.046997 -21.899994,0l-17.520996,-17.522003c-6.046997,-6.046997 -6.046997,-15.85199 0,-21.899994l183.932007,-183.932999c6.047974,-6.046005 15.852997,-6.046005 21.901001,0.001984z"/>
  <path id="svg_4" fill="#FFFFFF" d="m367.540009,349.898987l-17.522003,17.522003c-6.046997,6.046997 -15.85199,6.046997 -21.899994,0l-183.932007,-183.932983c-6.046997,-6.046997 -6.046997,-15.85199 0,-21.899994l17.521988,-17.522003c6.047012,-6.046997 15.852005,-6.046997 21.900009,0l183.932007,183.932983c6.048004,6.048004 6.048004,15.852997 0,21.899994z"/>
 </g>
</svg>
