<svg xmlns="http://www.w3.org/2000/svg" viewBox="0 0 25 25" width="25" height="25">
    <style>
        tspan { white-space:pre }
        .shp0 { fill: #b10000 }
        .shp1 { fill: #ffffff }
    </style>
    <g id="Layer">
        <path id="svg_2" class="shp0" d="M12.5 24.87C5.66 24.87 0.12 19.34 0.12 12.5C0.12 5.66 5.66 0.12 12.5 0.12C19.34 0.12 24.87 5.66 24.87 12.5C24.87 19.34 19.34 24.87 12.5 24.87Z" />
        <path id="svg_3" class="shp1" d="M17.09 7.03L17.95 7.89C18.24 8.19 18.24 8.66 17.95 8.96L8.97 17.94C8.67 18.24 8.19 18.24 7.9 17.94L7.04 17.08C6.75 16.79 6.75 16.31 7.04 16.02L16.02 7.03C16.32 6.74 16.8 6.74 17.09 7.03L17.09 7.03Z" />
        <path id="svg_4" class="shp1" d="M17.95 17.08L17.09 17.94C16.8 18.24 16.32 18.24 16.02 17.94L7.04 8.96C6.75 8.66 6.75 8.19 7.04 7.89L7.9 7.03C8.19 6.74 8.67 6.74 8.97 7.03L17.95 16.02C18.24 16.31 18.24 16.79 17.95 17.08L17.95 17.08Z" />
    </g>
</svg>
