<svg xmlns="http://www.w3.org/2000/svg" xmlns:xlink="http://www.w3.org/1999/xlink" height="512" style="" version="1.1" width="512" xml:space="preserve"><rect id="backgroundrect" width="100%" height="100%" x="0" y="0" fill="none" stroke="none"/><g class="currentLayer" style=""><title>Layer 1</title><g id="B_-_170_x2C__hourglass_x2C__Business_x2C__clock_x2C__sandclock_x2C__time_x2C__timer" class="" fill="#efa94a" fill-opacity="1"><g id="svg_1" fill="#efa94a" fill-opacity="1"><path d="M182.822,449.555h146.35c11.451-29.367,22.027-63.336,21.533-94.563    c-13.51-4.553-28.289-8.125-43.852-10.572h-0.099c-15.957-2.546-32.993-3.916-50.706-3.916c-17.72,0-34.756,1.37-50.804,3.916    c-15.569,2.447-30.349,6.02-43.859,10.572C160.801,386.269,171.469,420.139,182.822,449.555 M144.259,457.287v14.243h223.482    v-14.243C293.245,457.287,218.749,457.287,144.259,457.287z M329.172,62.447h-146.35c-11.451,29.612-22.021,63.433-21.436,94.562    c13.51,4.503,28.29,8.077,43.859,10.572c16.048,2.546,33.084,3.916,50.804,3.916c17.712,0,34.749-1.37,50.706-3.916h0.099    c15.563-2.496,30.342-6.069,43.852-10.572C351.199,125.88,340.721,92.059,329.172,62.447z M350.219,165.28    c-13.115,4.209-27.217,7.538-42.194,9.887v0.05c-16.543,2.593-34.065,4.013-51.975,4.013c-18.016,0-35.439-1.419-51.982-4.013    c-14.977-2.35-29.171-5.727-42.287-9.937c3.328,36.024,23.489,50.364,39.057,61.329c12.53,8.859,22.317,15.81,20.357,29.367    c1.96,13.606-7.827,20.557-20.357,29.417c-15.568,10.914-35.729,25.304-39.057,61.328c13.116-4.21,27.31-7.586,42.287-9.937    c16.542-2.594,33.966-4.013,51.982-4.013c17.91,0,35.432,1.419,51.975,4.013l0,0c14.978,2.351,29.079,5.727,42.194,9.937    c-3.23-36.072-23.494-50.364-38.965-61.328c-12.529-8.859-22.416-15.811-20.456-29.417c-1.96-13.558,7.927-20.508,20.456-29.367    C326.725,215.645,346.988,201.304,350.219,165.28z M144.259,54.714c74.49,0,148.986,0,223.482,0V40.47H144.259V54.714z" style="fill-rule:evenodd;clip-rule:evenodd;" id="svg_2" fill="#efa94a" fill-opacity="1"/></g></g><g id="Layer_1"/></g></svg>