<svg width="45" height="44" xmlns="http://www.w3.org/2000/svg">

 <g>
  <title>background</title>
  <rect fill="none" id="canvas_background" height="402" width="582" y="-1" x="-1"/>
 </g>
 <g>
  <title>Layer 1</title>
  <path id="svg_1" fill="#6c6d75" d="m37.5,29c-2.411,0 -4.551,1.143 -5.923,2.91l-16.217,-4.197l14.003,-13.026c0.678,0.201 1.394,0.313 2.137,0.313c4.143,0 7.5,-3.358 7.5,-7.5s-3.357,-7.5 -7.5,-7.5s-7.5,3.358 -7.5,7.5c0,1.193 0.286,2.318 0.782,3.32l-13.273,12.348c-1.16,-0.735 -2.532,-1.168 -4.009,-1.168c-4.143,0 -7.5,3.357 -7.5,7.5s3.357,7.5 7.5,7.5c2.683,0 5.028,-1.412 6.354,-3.529l16.246,4.205c0.566,3.582 3.658,6.324 7.4,6.324c4.143,0 7.5,-3.357 7.5,-7.5s-3.357,-7.5 -7.5,-7.5z"/>
 </g>
</svg>