<svg xmlns="http://www.w3.org/2000/svg" viewBox="0 0 20 25" width="20" height="25">
    <style>
        tspan { white-space:pre }
        .shp0 { fill: #efa94a }
    </style>
    <path id="Layer" fill-rule="evenodd" class="shp0" d="M19.34 3.61L19.34 5.39C19.34 6.37 18.55 7.16 17.58 7.16L17.58 23.16C17.58 24.15 16.79 24.95 15.82 24.95L3.52 24.95C2.55 24.95 1.76 24.15 1.76 23.16L1.76 7.16C0.78 7.16 0 6.37 0 5.39L0 3.61C0 2.63 0.78 1.84 1.76 1.84L8.79 1.84C8.79 1.84 8.79 1.44 8.79 0.95C8.79 0.45 9.18 0.05 9.67 0.05C10.15 0.05 10.55 0.45 10.55 0.95C10.55 1.16 10.55 1.84 10.55 1.84L17.58 1.84C18.55 1.84 19.34 2.63 19.34 3.61ZM15.82 7.16L14.07 7.16L14.07 20.5C14.07 20.99 13.67 21.39 13.18 21.39C12.7 21.39 12.31 20.99 12.31 20.5L12.32 7.16L10.56 7.16L10.55 20.5C10.55 20.99 10.15 21.39 9.67 21.39C9.18 21.39 8.79 20.99 8.79 20.5L8.79 7.16L7.05 7.16L7.03 20.5C7.03 20.99 6.64 21.39 6.15 21.39C5.67 21.39 5.28 20.99 5.28 20.5L5.28 7.16L3.52 7.16L3.52 22.28C3.52 22.77 3.91 23.16 4.39 23.16L14.95 23.16C15.43 23.16 15.82 22.77 15.82 22.28L15.82 7.16ZM17.58 4.05C17.58 3.81 17.38 3.61 17.15 3.61L2.2 3.61C1.95 3.61 1.76 3.81 1.76 4.05L1.76 4.95C1.76 5.19 1.95 5.39 2.2 5.39L17.15 5.39C17.38 5.39 17.58 5.19 17.58 4.95L17.58 4.05Z" />
</svg>
